<svg width="274" height="76" viewBox="0 0 274 76" fill="none" xmlns="http://www.w3.org/2000/svg">
<g filter="url(#filter0_d_1_321)">
<rect x="2" y="1" width="270" height="72" rx="36" fill="#2C2D31"/>
<path d="M91.8965 37.6943C91.8848 35.6963 92.79 34.1904 94.6182 33.0801C93.5957 31.6152 92.0488 30.8096 90.0098 30.6543C88.0791 30.502 85.9668 31.7793 85.1934 31.7793C84.376 31.7793 82.5068 30.707 81.0361 30.707C78.001 30.7539 74.7754 33.127 74.7754 37.9551C74.7754 39.3818 75.0361 40.8555 75.5576 42.373C76.2549 44.3711 78.7686 49.2666 81.3906 49.1875C82.7617 49.1553 83.7314 48.2148 85.5156 48.2148C87.2471 48.2148 88.1436 49.1875 89.6729 49.1875C92.3184 49.1494 94.5918 44.6992 95.2539 42.6953C91.7061 41.0225 91.8965 37.7969 91.8965 37.6943ZM88.8174 28.7588C90.3027 26.9951 90.168 25.3896 90.124 24.8125C88.8115 24.8887 87.2939 25.7061 86.4297 26.7109C85.4775 27.7891 84.918 29.1221 85.0381 30.625C86.4561 30.7334 87.751 30.0039 88.8174 28.7588Z" fill="white"/>
<path d="M111.2 44H108.87L114.105 29.4545H116.64L121.874 44H119.545L115.433 32.0966H115.319L111.2 44ZM111.59 38.304H119.147V40.1506H111.59V38.304ZM123.805 48.0909V33.0909H125.878V34.8594H126.056C126.179 34.6321 126.357 34.3693 126.589 34.071C126.821 33.7727 127.143 33.5123 127.555 33.2898C127.966 33.0625 128.511 32.9489 129.188 32.9489C130.069 32.9489 130.855 33.1714 131.546 33.6165C132.237 34.0616 132.779 34.7031 133.172 35.5412C133.57 36.3793 133.769 37.3878 133.769 38.5668C133.769 39.7457 133.573 40.7566 133.18 41.5994C132.787 42.4375 132.247 43.0838 131.56 43.5384C130.874 43.9882 130.09 44.2131 129.209 44.2131C128.546 44.2131 128.004 44.1018 127.583 43.8793C127.166 43.6567 126.84 43.3963 126.603 43.098C126.366 42.7997 126.184 42.5346 126.056 42.3026H125.928V48.0909H123.805ZM125.885 38.5455C125.885 39.3125 125.997 39.9848 126.219 40.5625C126.442 41.1402 126.764 41.5923 127.185 41.919C127.607 42.241 128.123 42.402 128.733 42.402C129.368 42.402 129.898 42.2339 130.324 41.8977C130.751 41.5568 131.073 41.0952 131.29 40.5128C131.513 39.9304 131.624 39.2746 131.624 38.5455C131.624 37.8258 131.515 37.1795 131.297 36.6065C131.084 36.0336 130.762 35.5814 130.331 35.25C129.905 34.9186 129.373 34.7528 128.733 34.7528C128.118 34.7528 127.597 34.9115 127.171 35.2287C126.75 35.5459 126.43 35.9886 126.212 36.5568C125.994 37.125 125.885 37.7879 125.885 38.5455ZM136.148 48.0909V33.0909H138.222V34.8594H138.4C138.523 34.6321 138.7 34.3693 138.932 34.071C139.164 33.7727 139.486 33.5123 139.898 33.2898C140.31 33.0625 140.855 32.9489 141.532 32.9489C142.412 32.9489 143.198 33.1714 143.89 33.6165C144.581 34.0616 145.123 34.7031 145.516 35.5412C145.914 36.3793 146.113 37.3878 146.113 38.5668C146.113 39.7457 145.916 40.7566 145.523 41.5994C145.13 42.4375 144.59 43.0838 143.904 43.5384C143.217 43.9882 142.434 44.2131 141.553 44.2131C140.89 44.2131 140.348 44.1018 139.927 43.8793C139.51 43.6567 139.183 43.3963 138.947 43.098C138.71 42.7997 138.528 42.5346 138.4 42.3026H138.272V48.0909H136.148ZM138.229 38.5455C138.229 39.3125 138.34 39.9848 138.563 40.5625C138.786 41.1402 139.108 41.5923 139.529 41.919C139.95 42.241 140.466 42.402 141.077 42.402C141.712 42.402 142.242 42.2339 142.668 41.8977C143.094 41.5568 143.416 41.0952 143.634 40.5128C143.857 39.9304 143.968 39.2746 143.968 38.5455C143.968 37.8258 143.859 37.1795 143.641 36.6065C143.428 36.0336 143.106 35.5814 142.675 35.25C142.249 34.9186 141.716 34.7528 141.077 34.7528C140.462 34.7528 139.941 34.9115 139.515 35.2287C139.093 35.5459 138.774 35.9886 138.556 36.5568C138.338 37.125 138.229 37.7879 138.229 38.5455ZM161.889 33.2756C161.813 32.6032 161.5 32.0824 160.951 31.7131C160.402 31.339 159.711 31.152 158.877 31.152C158.281 31.152 157.765 31.2467 157.329 31.4361C156.893 31.6207 156.555 31.8764 156.313 32.2031C156.077 32.5251 155.958 32.892 155.958 33.304C155.958 33.6496 156.039 33.9479 156.2 34.1989C156.365 34.4498 156.581 34.6605 156.846 34.831C157.116 34.9967 157.405 35.1364 157.713 35.25C158.02 35.3589 158.316 35.4489 158.6 35.5199L160.021 35.8892C160.485 36.0028 160.961 36.1567 161.448 36.3509C161.936 36.545 162.388 36.8007 162.805 37.1179C163.222 37.4351 163.558 37.8281 163.813 38.2969C164.074 38.7656 164.204 39.3267 164.204 39.9801C164.204 40.804 163.991 41.5355 163.565 42.1747C163.143 42.8139 162.53 43.3182 161.725 43.6875C160.925 44.0568 159.957 44.2415 158.82 44.2415C157.731 44.2415 156.789 44.0687 155.994 43.723C155.198 43.3774 154.576 42.8873 154.126 42.2528C153.676 41.6136 153.427 40.8561 153.38 39.9801H155.582C155.624 40.5057 155.795 40.9437 156.093 41.294C156.396 41.6397 156.782 41.8977 157.251 42.0682C157.724 42.2339 158.243 42.3168 158.806 42.3168C159.427 42.3168 159.978 42.2197 160.461 42.0256C160.949 41.8267 161.332 41.5521 161.612 41.2017C161.891 40.8466 162.031 40.4323 162.031 39.9588C162.031 39.5279 161.908 39.1752 161.661 38.9006C161.42 38.6259 161.091 38.3987 160.674 38.2188C160.262 38.0388 159.796 37.8802 159.275 37.7429L157.556 37.2741C156.392 36.9569 155.468 36.4905 154.786 35.875C154.109 35.2595 153.771 34.4451 153.771 33.4318C153.771 32.5937 153.998 31.8622 154.453 31.2372C154.907 30.6122 155.523 30.1269 156.299 29.7812C157.076 29.4309 157.952 29.2557 158.927 29.2557C159.912 29.2557 160.781 29.4285 161.534 29.7741C162.291 30.1198 162.888 30.5956 163.323 31.2017C163.759 31.803 163.986 32.4943 164.005 33.2756H161.889ZM171.748 33.0909V34.7955H165.79V33.0909H171.748ZM167.388 30.4773H169.511V40.7969C169.511 41.2088 169.573 41.5189 169.696 41.7273C169.819 41.9309 169.978 42.0705 170.172 42.1463C170.371 42.2173 170.586 42.2528 170.818 42.2528C170.988 42.2528 171.138 42.241 171.265 42.2173C171.393 42.1937 171.493 42.1747 171.564 42.1605L171.947 43.9148C171.824 43.9621 171.649 44.0095 171.422 44.0568C171.194 44.1089 170.91 44.1373 170.569 44.142C170.011 44.1515 169.49 44.0521 169.007 43.8438C168.524 43.6354 168.133 43.3134 167.835 42.8778C167.537 42.4422 167.388 41.8954 167.388 41.2372V30.4773ZM178.575 44.2202C177.553 44.2202 176.66 43.9858 175.898 43.517C175.136 43.0483 174.544 42.3925 174.122 41.5497C173.701 40.7069 173.49 39.7221 173.49 38.5952C173.49 37.4635 173.701 36.474 174.122 35.6264C174.544 34.7789 175.136 34.1207 175.898 33.652C176.66 33.1832 177.553 32.9489 178.575 32.9489C179.598 32.9489 180.491 33.1832 181.253 33.652C182.015 34.1207 182.607 34.7789 183.029 35.6264C183.45 36.474 183.661 37.4635 183.661 38.5952C183.661 39.7221 183.45 40.7069 183.029 41.5497C182.607 42.3925 182.015 43.0483 181.253 43.517C180.491 43.9858 179.598 44.2202 178.575 44.2202ZM178.583 42.4375C179.245 42.4375 179.795 42.2623 180.23 41.9119C180.666 41.5616 180.988 41.0952 181.196 40.5128C181.409 39.9304 181.516 39.2888 181.516 38.5881C181.516 37.892 181.409 37.2528 181.196 36.6705C180.988 36.0833 180.666 35.6122 180.23 35.2571C179.795 34.902 179.245 34.7244 178.583 34.7244C177.915 34.7244 177.361 34.902 176.921 35.2571C176.485 35.6122 176.161 36.0833 175.948 36.6705C175.739 37.2528 175.635 37.892 175.635 38.5881C175.635 39.2888 175.739 39.9304 175.948 40.5128C176.161 41.0952 176.485 41.5616 176.921 41.9119C177.361 42.2623 177.915 42.4375 178.583 42.4375ZM186.031 44V33.0909H188.084V34.8239H188.197C188.396 34.2367 188.747 33.7751 189.248 33.4389C189.755 33.098 190.328 32.9276 190.967 32.9276C191.1 32.9276 191.256 32.9323 191.436 32.9418C191.621 32.9512 191.765 32.9631 191.869 32.9773V35.0085C191.784 34.9848 191.632 34.9588 191.415 34.9304C191.197 34.8973 190.979 34.8807 190.761 34.8807C190.259 34.8807 189.812 34.9872 189.419 35.2003C189.031 35.4086 188.723 35.6998 188.496 36.0739C188.268 36.4432 188.155 36.8646 188.155 37.3381V44H186.031ZM198.018 44.2202C196.943 44.2202 196.017 43.9905 195.241 43.5312C194.469 43.0672 193.873 42.4162 193.451 41.5781C193.035 40.7353 192.826 39.7481 192.826 38.6165C192.826 37.4991 193.035 36.5142 193.451 35.6619C193.873 34.8097 194.46 34.1444 195.213 33.6662C195.97 33.188 196.856 32.9489 197.869 32.9489C198.484 32.9489 199.081 33.0507 199.659 33.2543C200.236 33.4579 200.755 33.7775 201.214 34.2131C201.673 34.6487 202.035 35.2145 202.301 35.9105C202.566 36.6018 202.698 37.4422 202.698 38.4318V39.1847H194.026V37.5938H200.617C200.617 37.035 200.504 36.5402 200.276 36.1094C200.049 35.6738 199.73 35.3305 199.318 35.0795C198.91 34.8286 198.432 34.7031 197.883 34.7031C197.286 34.7031 196.766 34.8499 196.32 35.1435C195.88 35.4323 195.539 35.8111 195.298 36.2798C195.061 36.7438 194.943 37.2481 194.943 37.7926V39.0355C194.943 39.7647 195.07 40.3849 195.326 40.8963C195.587 41.4077 195.949 41.7983 196.413 42.0682C196.877 42.3333 197.419 42.4659 198.039 42.4659C198.442 42.4659 198.809 42.4091 199.14 42.2955C199.472 42.1771 199.758 42.0019 199.999 41.7699C200.241 41.5379 200.426 41.2514 200.553 40.9105L202.563 41.2727C202.402 41.8646 202.114 42.383 201.697 42.8281C201.285 43.2685 200.767 43.6117 200.142 43.858C199.521 44.0994 198.813 44.2202 198.018 44.2202Z" fill="white"/>
</g>
<defs>
<filter id="filter0_d_1_321" x="0" y="0" width="274" height="76" filterUnits="userSpaceOnUse" color-interpolation-filters="sRGB">
<feFlood flood-opacity="0" result="BackgroundImageFix"/>
<feColorMatrix in="SourceAlpha" type="matrix" values="0 0 0 0 0 0 0 0 0 0 0 0 0 0 0 0 0 0 127 0" result="hardAlpha"/>
<feOffset dy="1"/>
<feGaussianBlur stdDeviation="1"/>
<feColorMatrix type="matrix" values="0 0 0 0 0.411765 0 0 0 0 0.317647 0 0 0 0 1 0 0 0 0.05 0"/>
<feBlend mode="normal" in2="BackgroundImageFix" result="effect1_dropShadow_1_321"/>
<feBlend mode="normal" in="SourceGraphic" in2="effect1_dropShadow_1_321" result="shape"/>
</filter>
</defs>
</svg>
